<svg width="40" height="40" viewBox="0 0 40 40" fill="none" xmlns="http://www.w3.org/2000/svg">
  <circle cx="20" cy="20" r="20" fill="#E2001A"/>
  <path d="M8 20.84C8 24.42 11.48 27.44 15.76 27.44C20.04 27.44 23.52 24.42 23.52 20.84C23.52 17.26 20.04 14.24 15.76 14.24C11.48 14.24 8 17.26 8 20.84Z" fill="white"/>
  <path d="M15.76 14.24V27.44" stroke="#E2001A" stroke-width="0.8" stroke-miterlimit="10"/>
  <path d="M25.54 22.04C29.38 22.04 32.5 19.8 32.5 17.04C32.5 14.28 29.38 12.04 25.54 12.04C21.7 12.04 18.58 14.28 18.58 17.04C18.58 19.8 21.7 22.04 25.54 22.04Z" fill="white"/>
  <path d="M25.54 12.04V22.04" stroke="#E2001A" stroke-width="0.8" stroke-miterlimit="10"/>
  <path d="M24.5 26.44C27.54 26.44 30 24.62 30 22.34C30 20.06 27.54 18.24 24.5 18.24C21.46 18.24 19 20.06 19 22.34C19 24.62 21.46 26.44 24.5 26.44Z" fill="white"/>
  <path d="M24.5 18.24V26.44" stroke="#E2001A" stroke-width="0.8" stroke-miterlimit="10"/>
  <path d="M20.72 16.14C20.12 14.95 18.83 14.14 17.32 14.14C15.07 14.14 13.24 15.97 13.24 18.22C13.24 20.47 15.07 22.3 17.32 22.3C18.83 22.3 20.12 21.49 20.72 20.3" stroke="#E2001A" stroke-width="0.8" stroke-miterlimit="10"/>
  <path d="M28.5 15.3C27.9 14.51 26.93 14 25.84 14C24.12 14 22.72 15.4 22.72 17.12C22.72 18.84 24.12 20.24 25.84 20.24C26.93 20.24 27.9 19.73 28.5 18.94" stroke="#E2001A" stroke-width="0.8" stroke-miterlimit="10"/>
  <path d="M27.38 20.88C26.78 20.35 25.99 20.04 25.12 20.04C23.4 20.04 22 21.44 22 23.16C22 24.88 23.4 26.28 25.12 26.28C25.99 26.28 26.78 25.97 27.38 25.44" stroke="#E2001A" stroke-width="0.8" stroke-miterlimit="10"/>
</svg>
