<svg xmlns="http://www.w3.org/2000/svg" viewBox="0 0 180 60" fill="none">
  <path d="M69.79 13.26H73.44V40.84H69.79V13.26Z" fill="#E2001A"/>
  <path d="M79.11 22.82H82.55V25.08C83.63 23.28 85.59 22.36 87.75 22.36C91.53 22.36 94.45 25.19 94.45 29.27V40.82H91.01V29.84C91.01 27.12 89.39 25.42 86.85 25.42C84.31 25.42 82.55 27.28 82.55 30.08V40.82H79.11V22.82Z" fill="#E2001A"/>
  <path d="M97.04 31.82C97.04 26.54 101.04 22.36 106.32 22.36C111.6 22.36 115.6 26.54 115.6 31.82C115.6 37.1 111.6 41.28 106.32 41.28C101.04 41.28 97.04 37.1 97.04 31.82ZM112.08 31.82C112.08 28.42 109.56 25.42 106.32 25.42C103.08 25.42 100.56 28.42 100.56 31.82C100.56 35.22 103.08 38.22 106.32 38.22C109.56 38.22 112.08 35.22 112.08 31.82Z" fill="#E2001A"/>
  <path d="M124.09 39.3C122.61 40.88 120.55 41.28 118.95 41.28C115.97 41.28 113.61 39.4 113.61 36.04C113.61 32.68 115.97 30.82 118.95 30.82C120.55 30.82 122.61 31.22 124.09 32.82V29.8C124.09 27.48 122.65 25.94 120.15 25.94C118.45 25.94 116.87 26.5 115.23 27.64L113.99 25.14C116.05 23.62 118.21 22.82 120.71 22.82C124.77 22.82 127.53 25.24 127.53 29.8V40.82H124.09V39.3ZM124.09 36.28V34.38C122.99 33.2 121.47 32.76 120.13 32.76C118.45 32.76 117.13 33.64 117.13 35.3C117.13 36.96 118.47 37.88 120.13 37.88C121.45 37.88 122.99 37.46 124.09 36.28Z" fill="#E2001A"/>
  <path d="M130.88 22.82H134.32V40.82H130.88V22.82ZM130.88 13.26H134.32V17.32H130.88V13.26Z" fill="#E2001A"/>
  <path d="M136.98 31.82C136.98 26.54 140.98 22.36 146.26 22.36C151.54 22.36 155.54 26.54 155.54 31.82C155.54 37.1 151.54 41.28 146.26 41.28C140.98 41.28 136.98 37.1 136.98 31.82ZM152.02 31.82C152.02 28.42 149.5 25.42 146.26 25.42C143.02 25.42 140.5 28.42 140.5 31.82C140.5 35.22 143.02 38.22 146.26 38.22C149.5 38.22 152.02 35.22 152.02 31.82Z" fill="#E2001A"/>
  <path d="M157.67 22.82H161.11V25.08C162.19 23.28 164.15 22.36 166.31 22.36C170.09 22.36 173.01 25.19 173.01 29.27V40.82H169.57V29.84C169.57 27.12 167.95 25.42 165.41 25.42C162.87 25.42 161.11 27.28 161.11 30.08V40.82H157.67V22.82Z" fill="#E2001A"/>
  <path d="M21 33.5C21 39.9 26.6 45 33.5 45C40.4 45 46 39.9 46 33.5C46 27.1 40.4 22 33.5 22C26.6 22 21 27.1 21 33.5Z" fill="white"/>
  <path d="M33.5 22V45" stroke="#E2001A" stroke-width="1.5" stroke-miterlimit="10"/>
  <path d="M49.4 35.4C55.5 35.4 60.5 31.9 60.5 27.6C60.5 23.3 55.5 19.8 49.4 19.8C43.3 19.8 38.3 23.3 38.3 27.6C38.3 31.9 43.3 35.4 49.4 35.4Z" fill="white"/>
  <path d="M49.4 19.8V35.4" stroke="#E2001A" stroke-width="1.5" stroke-miterlimit="10"/>
  <path d="M47.5 43.2C52.6 43.2 56.8 40.3 56.8 36.7C56.8 33.1 52.6 30.2 47.5 30.2C42.4 30.2 38.2 33.1 38.2 36.7C38.2 40.3 42.4 43.2 47.5 43.2Z" fill="white"/>
  <path d="M47.5 30.2V43.2" stroke="#E2001A" stroke-width="1.5" stroke-miterlimit="10"/>
  <path d="M40.7 25.2C39.7 23.3 37.8 22 35.6 22C32.1 22 29.3 24.8 29.3 28.3C29.3 31.8 32.1 34.6 35.6 34.6C37.8 34.6 39.7 33.3 40.7 31.4" stroke="#E2001A" stroke-width="1.5" stroke-miterlimit="10"/>
  <path d="M55 24.8C54.1 23.5 52.5 22.7 50.8 22.7C48.1 22.7 46 24.8 46 27.5C46 30.2 48.1 32.3 50.8 32.3C52.5 32.3 54.1 31.5 55 30.2" stroke="#E2001A" stroke-width="1.5" stroke-miterlimit="10"/>
  <path d="M53.2 36.1C52.3 35.2 51.1 34.7 49.8 34.7C47.1 34.7 45 36.8 45 39.5C45 42.2 47.1 44.3 49.8 44.3C51.1 44.3 52.3 43.8 53.2 42.9" stroke="#E2001A" stroke-width="1.5" stroke-miterlimit="10"/>
</svg>
