<svg width="1440" height="900" viewBox="0 0 1440 900" fill="none" xmlns="http://www.w3.org/2000/svg">
  <rect width="1440" height="900" fill="#F5F5F5"/>
  <rect y="0" width="1440" height="80" fill="#E2001A"/>
  <rect x="120" y="20" width="160" height="40" fill="white"/>
  <rect x="1160" y="25" width="30" height="30" rx="15" fill="white"/>
  <rect x="1210" y="25" width="30" height="30" rx="15" fill="white"/>
  <rect x="1260" y="25" width="30" height="30" rx="15" fill="white"/>
  <rect x="120" y="120" width="1200" height="300" rx="8" fill="#FFFFFF"/>
  <rect x="120" y="120" width="1200" height="180" fill="#E2001A"/>
  <rect x="300" y="170" width="840" height="80" rx="4" fill="white"/>
  <rect x="320" y="190" width="120" height="40" rx="20" fill="#E2001A"/>
  <rect x="460" y="190" width="120" height="40" rx="20" fill="#CCCCCC"/>
  <rect x="600" y="190" width="120" height="40" rx="20" fill="#CCCCCC"/>
  <rect x="740" y="190" width="120" height="40" rx="20" fill="#CCCCCC"/>
  <rect x="880" y="190" width="120" height="40" rx="20" fill="#CCCCCC"/>
  <rect x="1020" y="190" width="100" height="40" rx="20" fill="#CCCCCC"/>
  <rect x="300" y="340" width="840" height="40" fill="#EEEEEE"/>
  <rect x="320" y="350" width="200" height="20" rx="4" fill="#999999"/>
  <rect x="540" y="350" width="120" height="20" rx="4" fill="#999999"/>
  <rect x="680" y="350" width="120" height="20" rx="4" fill="#999999"/>
  <rect x="820" y="350" width="120" height="20" rx="4" fill="#999999"/>
  <rect x="960" y="350" width="160" height="20" rx="4" fill="#999999"/>
  <rect x="120" y="460" width="384" height="320" rx="8" fill="#FFFFFF"/>
  <rect x="150" y="480" width="324" height="24" rx="4" fill="#333333"/>
  <rect x="150" y="520" width="324" height="180" rx="4" fill="#EEEEEE"/>
  <rect x="150" y="720" width="120" height="40" rx="20" fill="#E2001A"/>
  <rect x="528" y="460" width="384" height="320" rx="8" fill="#FFFFFF"/>
  <rect x="558" y="480" width="324" height="24" rx="4" fill="#333333"/>
  <rect x="558" y="520" width="324" height="180" rx="4" fill="#EEEEEE"/>
  <rect x="558" y="720" width="120" height="40" rx="20" fill="#E2001A"/>
  <rect x="936" y="460" width="384" height="320" rx="8" fill="#FFFFFF"/>
  <rect x="966" y="480" width="324" height="24" rx="4" fill="#333333"/>
  <rect x="966" y="520" width="324" height="180" rx="4" fill="#EEEEEE"/>
  <rect x="966" y="720" width="120" height="40" rx="20" fill="#E2001A"/>
  <rect x="0" y="820" width="1440" height="80" fill="#333333"/>
  <rect x="120" y="840" width="240" height="40" fill="#444444"/>
  <rect x="1080" y="840" width="240" height="40" fill="#444444"/>
</svg>
